<svg enable-background="new 0 0 100 100" height="100" viewBox="0 0 100 100" width="100" xmlns="http://www.w3.org/2000/svg"><path d="m92.038 24.333-8.62-8.622c-.303-.302-.712-.473-1.141-.473-.428 0-.838.171-1.141.473l-31.149 31.149-6.07-6.068c-.63-.63-1.651-.63-2.282 0l-8.622 8.622c-.303.302-.473.713-.473 1.141 0 .427.17.838.473 1.141l15.782 15.778c.302.302.712.473 1.141.473.019 0 .037-.01.056-.01.016 0 .033.009.05.009.414 0 .825-.158 1.141-.473l40.855-40.857c.63-.632.63-1.653 0-2.283z" fill="#231f20"/><path d="m72.022 53.625v21.159h-44.044v-44.044h31.06l9.979-9.978h-45.824v.007c-.023 0-.044-.007-.068-.007-2.788 0-5.045 2.229-5.113 5h-.012v54h.013c.067 2.728 2.259 4.92 4.987 4.987v.013h.125.001 53.748.001.125v-.013c2.729-.067 4.92-2.259 4.987-4.987h.013v-36.115z"/></svg>