<svg fill="none" height="24" viewBox="0 0 24 24" width="24" xmlns="http://www.w3.org/2000/svg"><g fill="#1c274c"><path d="m13.2895 5.7897c-.2803-1.01324.1047-2.30868.8479-3.05191.9838-.98372 2.5787-.98372 3.5624 0 .9837.98373.9837 2.57867 0 3.56239.9837-.98372 2.5787-.98372 3.5624 0 .9837.98373.9837 2.57866 0 3.56239-.7432.74323-2.0387 1.12823-3.0519.84793-.5363-.1485-1.1857-.1727-1.5792.2208l-.8425.8425-2.6849.4128v-.5401c0-.2411-.1158-.4675-.3114-.6084-.1956-.141-.447-.1794-.6757-.1031l-1.1342.378v-1.85781l2.0863-2.08629c.3935-.39349.3693-1.04287.2208-1.5792z"/><path d="m9.48242 10.9552-2.11352 2.1135c-.39349.3935-1.04287.3693-1.5792.2208-1.01324-.2803-2.30869.1047-3.05191.8479-.98372.9838-.98372 2.5787 0 3.5624.98373.9837 2.57867.9837 3.56239 0-.98372.9837-.98373 2.5787 0 3.5624s2.57866.9837 3.56239 0c.74323-.7432 1.12823-2.0387.84793-3.0519-.1485-.5363-.1727-1.1857.2208-1.5792l3.064-3.064-1.5276.2349c-.2163.0332-.4363-.0296-.6023-.1721-.1661-.1425-.2617-.3504-.2617-.5692v-.3736l-1.1341.378c-.2287.0762-.48013.0379-.67571-.1031-.19558-.1409-.31147-.3673-.31147-.6084z"/></g></svg>